G04 start of page 4 for group 7 layer_idx 4 *
G04 Title: (unknown), Intern *
G04 Creator: pcb-rnd 2.0.0 *
G04 CreationDate: 2018-06-05 21:26:10 UTC *
G04 For:  *
G04 Format: Gerber/RS-274X *
G04 PCB-Dimensions: 500000 500000 *
G04 PCB-Coordinate-Origin: lower left *
%MOIN*%
%FSLAX25Y25*%
%LNGROUP7*%
%ADD41C,0.0400*%
%ADD40C,0.0320*%
%ADD39C,0.0790*%
%ADD38C,0.0420*%
%ADD37C,0.0394*%
%ADD36C,0.2000*%
%ADD35C,0.0600*%
%ADD34C,0.0720*%
%ADD33C,0.0800*%
%ADD32C,0.0001*%
G54D32*G36*
X266000Y289000D02*X274000D01*
Y281000D01*
X266000D01*
Y289000D01*
G37*
G54D33*X270000Y245000D03*
G54D32*G36*
X298500Y251500D02*X306500D01*
Y243500D01*
X298500D01*
Y251500D01*
G37*
G36*
X298900Y278600D02*X306100D01*
Y271400D01*
X298900D01*
Y278600D01*
G37*
G54D34*X302500Y285000D03*
Y295000D03*
G54D32*G36*
X331000Y304000D02*X339000D01*
Y296000D01*
X331000D01*
Y304000D01*
G37*
G54D33*X375000Y300000D03*
G54D32*G36*
X318500Y274000D02*X326500D01*
Y266000D01*
X318500D01*
Y274000D01*
G37*
G54D33*X362500Y270000D03*
G54D32*G36*
X328408Y251166D02*X336408D01*
Y243166D01*
X328408D01*
Y251166D01*
G37*
G54D33*X332408Y237166D03*
G54D35*X334500Y216500D03*
G54D32*G36*
X321500Y219500D02*X327500D01*
Y213500D01*
X321500D01*
Y219500D01*
G37*
G54D36*X337500Y355000D03*
X377500D03*
G54D33*X347500Y335000D03*
X357500D03*
X302500Y237500D03*
G54D35*X306500Y216500D03*
X296500D03*
X286500D03*
X276500D03*
G54D32*G36*
X263500Y219500D02*X269500D01*
Y213500D01*
X263500D01*
Y219500D01*
G37*
G54D36*X187500Y355000D03*
X227500D03*
G54D33*X197500Y335000D03*
X207500D03*
G54D32*G36*
X227500Y281500D02*X235500D01*
Y273500D01*
X227500D01*
Y281500D01*
G37*
G36*
X205900Y281100D02*X213100D01*
Y273900D01*
X205900D01*
Y281100D01*
G37*
G54D34*X199500Y277500D03*
X189500D03*
G54D33*X241500D03*
G54D32*G36*
X219500Y251500D02*X227500D01*
Y243500D01*
X219500D01*
Y251500D01*
G37*
G54D33*X233500Y247500D03*
G54D32*G36*
X190500Y251500D02*X198500D01*
Y243500D01*
X190500D01*
Y251500D01*
G37*
G54D33*X204500Y247500D03*
G54D32*G36*
X214500Y232500D02*X222500D01*
Y224500D01*
X214500D01*
Y232500D01*
G37*
G54D33*X231500Y199500D03*
X221500D03*
G54D32*G36*
X207500Y203500D02*X215500D01*
Y195500D01*
X207500D01*
Y203500D01*
G37*
G54D33*X241500Y199500D03*
X258500Y228500D03*
X251500Y199500D03*
G54D37*G54D38*G54D37*G54D38*G54D39*G54D40*G54D37*G54D38*G54D39*G54D40*G54D37*G54D38*G54D37*G54D41*G54D37*G54D41*M02*
