M48
INCH
T57C0.040
T56C0.032
T55C0.079
T54C0.042
T53C0.039
%
T56
X034750Y033500
X035750Y033500
X019750Y033500
X020750Y033500
T53
X027000Y028500
X027000Y024500
X030250Y024750
X033500Y030000
X037500Y030000
X032250Y027000
X036250Y027000
X033241Y024717
X033241Y023717
X030250Y023750
X023150Y027750
X024150Y027750
X022350Y024750
X023350Y024750
X019450Y024750
X020450Y024750
X021850Y022850
X025850Y022850
T57
X023150Y019950
X022150Y019950
X021150Y019950
X024150Y019950
X025150Y019950
T54
X030250Y027500
X030250Y028500
X030250Y029500
X033450Y021650
X032450Y021650
X030650Y021650
X029650Y021650
X028650Y021650
X027650Y021650
X026650Y021650
X020950Y027750
X019950Y027750
X018950Y027750
T55
X033750Y035500
X037750Y035500
X018750Y035500
X022750Y035500
M30
