G04 start of page 10 for group 1 layer_idx 8 *
G04 Title: (unknown), top_silk *
G04 Creator: pcb-rnd 2.0.0 *
G04 CreationDate: 2018-06-05 21:26:10 UTC *
G04 For:  *
G04 Format: Gerber/RS-274X *
G04 PCB-Dimensions: 500000 500000 *
G04 PCB-Coordinate-Origin: lower left *
%MOIN*%
%FSLAX25Y25*%
%LNTOPSILK*%
%ADD71C,0.0070*%
%ADD70C,0.0400*%
%ADD69C,0.0150*%
%ADD68C,0.0100*%
G54D68*X335000Y300000D02*X345000D01*
X346666Y303333D01*
X335833Y276666D02*Y263334D01*
Y276666D02*X337833D01*
X334500Y193500D02*Y173800D01*
X339500Y206000D02*Y193500D01*
X334500D01*
G54D69*X335750Y172100D02*Y193200D01*
G54D68*X322500Y270000D02*X335833D01*
X349166Y276666D02*Y263334D01*
Y276666D02*X335833Y270000D01*
X349166Y263334D02*X335833Y270000D01*
Y263334D02*X333833D01*
X346666Y303333D02*X350000Y296667D01*
X351666Y300000D01*
X353333Y303333D01*
X356666Y296667D01*
X309500Y292000D02*Y278000D01*
X328000Y193500D02*X331000D01*
X319500D02*X324500D01*
X300000D02*X303000D01*
G54D69*X323250Y171800D02*Y193200D01*
G54D70*X324500Y189100D02*Y191300D01*
Y180100D02*Y182300D01*
X334500Y180100D02*Y182300D01*
G54D68*X324500Y173800D02*X334500D01*
G54D70*Y172300D02*Y169100D01*
X324500Y172300D02*Y169100D01*
G54D68*Y173800D02*Y193500D01*
X306500D02*Y173800D01*
G54D69*X307750Y172100D02*Y193200D01*
G54D68*X266500Y173800D02*Y193500D01*
X270000D02*X273000D01*
X280000D02*X283000D01*
G54D70*X276500Y180100D02*Y182300D01*
Y189100D02*Y191300D01*
G54D68*X290000Y193500D02*X293000D01*
G54D70*X286500Y180100D02*Y182300D01*
Y189100D02*Y191300D01*
G54D68*X266500Y173800D02*X306500D01*
X311500Y193500D02*X306500D01*
G54D70*X296500Y189100D02*Y191300D01*
X306500Y189100D02*Y191300D01*
X266500Y180100D02*Y182300D01*
G54D69*X265250Y171800D02*Y193200D01*
G54D70*X266500Y189100D02*Y191300D01*
X296500Y180100D02*Y182300D01*
X286500Y172300D02*Y169100D01*
X276500Y172300D02*Y169100D01*
X306500Y180100D02*Y182300D01*
G54D68*X293000Y173800D02*X306500D01*
G54D70*X296500Y172300D02*Y169100D01*
X306500Y172300D02*Y169100D01*
X266500Y172300D02*Y169100D01*
X334500Y189100D02*Y191300D01*
Y208000D02*Y216500D01*
X324500Y208000D02*Y216500D01*
G54D68*X339500Y206000D02*X319500D01*
X311500D02*Y193500D01*
G54D70*X334500Y198100D02*Y200300D01*
X324500Y198100D02*Y200300D01*
G54D68*X319500Y193500D02*Y206000D01*
G54D70*X306500Y198100D02*Y200300D01*
G54D68*X261500Y193500D02*Y206000D01*
Y193500D02*X266500D01*
G54D70*Y198100D02*Y200300D01*
X276500Y198100D02*Y200300D01*
G54D68*X311500Y206000D02*X261500D01*
G54D70*X296500Y198100D02*Y200300D01*
X286500Y198100D02*Y200300D01*
X306500Y208000D02*Y216500D01*
X296500Y208000D02*Y216500D01*
X286500Y208000D02*Y216500D01*
X276500Y208000D02*Y216500D01*
X266500Y208000D02*Y216500D01*
G54D68*X365000Y300000D02*X375000D01*
X270000Y285000D02*Y275000D01*
X273333Y273334D01*
X266667Y270000D01*
X270000Y268334D01*
X273333Y266667D01*
X266667Y263334D01*
X270000Y255000D02*Y245000D01*
X302500Y230500D02*Y226500D01*
Y258500D02*Y254500D01*
X300500Y256500D02*X304500D01*
X266667Y263334D02*X270000Y261667D01*
X248500Y277500D02*X252500D01*
X220500D02*X224500D01*
X222500Y279500D02*Y275500D01*
X206500Y284500D02*X192500D01*
X270000Y261667D02*X273333Y260000D01*
X266667Y256667D01*
X212500Y247500D02*X216500D01*
X214500Y249500D02*Y245500D01*
X218500Y228500D02*X228500D01*
X230166Y231833D01*
X266667Y256667D02*X270000Y255000D01*
X240500Y247500D02*X244500D01*
X248500Y228500D02*X258500D01*
X241833D02*X243500Y231833D01*
X230166D02*X233500Y225167D01*
X235166Y228500D01*
X206500Y211700D02*X256500D01*
X211500Y205700D02*Y211700D01*
X206500D02*Y186700D01*
X256500Y211700D02*Y186700D01*
X206500D02*X256500D01*
X211500Y205700D02*X251500D01*
Y211700D01*
X235166Y228500D02*X236833Y231833D01*
X240166Y225167D01*
X241833Y228500D01*
X243500Y231833D02*X246833Y225167D01*
X248500Y228500D01*
X356666Y296667D02*X358333Y300000D01*
X349166Y270000D02*X362500D01*
X236500Y384850D02*X178500D01*
Y364000D01*
Y325150D02*Y346000D01*
X236500Y384016D03*
Y325150D02*Y346000D01*
X178500Y325150D02*X236500D01*
Y384850D02*Y364000D01*
X386500Y384850D02*X328500D01*
Y364000D01*
Y325150D02*Y346000D01*
X386500Y384016D03*
X358333Y300000D02*X360000Y303333D01*
X386500Y325150D02*Y346000D01*
X328500Y325150D02*X386500D01*
Y384850D02*Y364000D01*
X360000Y303333D02*X363333Y296667D01*
X365000Y300000D01*
X226500Y277500D02*G75*G03X246500Y277500I10000J0D01*G01*
G75*G03X226500Y277500I-10000J0D01*G01*
X218500Y247500D02*G75*G03X238500Y247500I10000J0D01*G01*
G75*G03X218500Y247500I-10000J0D01*G01*
X192429Y284571D02*G75*G03X206571Y270429I7071J-7071D01*G01*
X206571Y270429D02*G75*G03X206571Y284571I-7071J7071D01*G01*
X189500Y247500D02*G75*G03X209500Y247500I10000J0D01*G01*
G75*G03X189500Y247500I-10000J0D01*G01*
X309571Y292071D02*G75*G03X295429Y277929I-7071J-7071D01*G01*
X295429Y277929D02*G75*G03X309571Y277929I7071J7071D01*G01*
X332408Y252166D02*G75*G03X332408Y232166I0J-10000D01*G01*
G75*G03X332408Y252166I0J10000D01*G01*
X302500Y252500D02*G75*G03X302500Y232500I0J-10000D01*G01*
G75*G03X302500Y252500I0J10000D01*G01*
G54D71*X278500Y268000D02*Y266000D01*
X278000Y265500D01*
X277000D02*X278000D01*
X276500Y266000D02*X277000Y265500D01*
X276500Y267500D02*Y266000D01*
X274500Y267500D02*X278500D01*
X276500Y266700D02*X274500Y265500D01*
X277700Y264300D02*X278500Y263500D01*
X274500D02*X278500D01*
X274500Y264300D02*Y262800D01*
X235200Y289500D02*X236500D01*
X234500Y290200D02*X235200Y289500D01*
X234500Y292800D02*Y290200D01*
Y292800D02*X235200Y293500D01*
X236500D01*
X237700Y293000D02*X238200Y293500D01*
X239200D01*
X239700Y293000D01*
X239200Y289500D02*X239700Y290000D01*
X238200Y289500D02*X239200D01*
X237700Y290000D02*X238200Y289500D01*
Y291700D02*X239200D01*
X239700Y293000D02*Y292200D01*
Y291200D02*Y290000D01*
Y291200D02*X239200Y291700D01*
X239700Y292200D02*X239200Y291700D01*
X226200Y259500D02*X227500D01*
X225500Y260200D02*X226200Y259500D01*
X225500Y262800D02*Y260200D01*
Y262800D02*X226200Y263500D01*
X227500D01*
X228700Y261000D02*X230700Y263500D01*
X228700Y261000D02*X231200D01*
X230700Y263500D02*Y259500D01*
X191500Y291500D02*X192500Y287500D01*
X193500Y291500D01*
X194700D02*X196700D01*
X197200Y291000D01*
Y290000D01*
X196700Y289500D02*X197200Y290000D01*
X195200Y289500D02*X196700D01*
X195200Y291500D02*Y287500D01*
X196000Y289500D02*X197200Y287500D01*
X198400Y289700D02*X199900D01*
X198400Y287500D02*X200400D01*
X198400Y291500D02*Y287500D01*
Y291500D02*X200400D01*
X203600D02*X204100Y291000D01*
X202100Y291500D02*X203600D01*
X201600Y291000D02*X202100Y291500D01*
X201600Y291000D02*Y288000D01*
X202100Y287500D01*
X203600D01*
X204100Y288000D01*
Y289000D02*Y288000D01*
X203600Y289500D02*X204100Y289000D01*
X202600Y289500D02*X203600D01*
X205300Y290700D02*X206100Y291500D01*
Y287500D01*
X205300D02*X206800D01*
X198200Y259500D02*X199500D01*
X197500Y260200D02*X198200Y259500D01*
X197500Y262800D02*Y260200D01*
Y262800D02*X198200Y263500D01*
X199500D01*
X200700D02*X202700D01*
X200700D02*Y261500D01*
X201200Y262000D01*
X202200D01*
X202700Y261500D01*
Y260000D01*
X202200Y259500D02*X202700Y260000D01*
X201200Y259500D02*X202200D01*
X200700Y260000D02*X201200Y259500D01*
X180237Y319190D02*X181537D01*
X179537Y319890D02*X180237Y319190D01*
X179537Y322490D02*Y319890D01*
Y322490D02*X180237Y323190D01*
X181537D01*
X182737Y322690D02*Y319690D01*
Y322690D02*X183237Y323190D01*
X184237D01*
X184737Y322690D01*
Y319690D01*
X184237Y319190D02*X184737Y319690D01*
X183237Y319190D02*X184237D01*
X182737Y319690D02*X183237Y319190D01*
X185937Y323190D02*Y319190D01*
Y323190D02*X188437Y319190D01*
Y323190D02*Y319190D01*
X189637Y323190D02*Y319190D01*
Y323190D02*X192137Y319190D01*
Y323190D02*Y319190D01*
X193337Y322390D02*X194137Y323190D01*
Y319190D01*
X193337D02*X194837D01*
X350500Y308500D02*X352500D01*
X353000Y308000D01*
Y307000D01*
X352500Y306500D02*X353000Y307000D01*
X351000Y306500D02*X352500D01*
X351000Y308500D02*Y304500D01*
X351800Y306500D02*X353000Y304500D01*
X354200Y308000D02*X354700Y308500D01*
X356200D01*
X356700Y308000D01*
Y307000D01*
X354200Y304500D02*X356700Y307000D01*
X354200Y304500D02*X356700D01*
X344650Y244950D02*Y243650D01*
X345350Y245650D02*X344650Y244950D01*
X345350Y245650D02*X347950D01*
X348650Y244950D01*
Y243650D01*
X348150Y242450D02*X348650Y241950D01*
Y240450D01*
X348150Y239950D01*
X347150D02*X348150D01*
X344650Y242450D02*X347150Y239950D01*
X344650Y242450D02*Y239950D01*
X314500Y243800D02*Y242500D01*
X315200Y244500D02*X314500Y243800D01*
X315200Y244500D02*X317800D01*
X318500Y243800D01*
Y242500D01*
X317700Y241300D02*X318500Y240500D01*
X314500D02*X318500D01*
X314500Y241300D02*Y239800D01*
X339333Y281500D02*X341833D01*
X339333Y277500D02*X341833Y281500D01*
X339333Y277500D02*X341833D01*
X343033Y280700D02*X343833Y281500D01*
Y277500D01*
X343033D02*X344533D01*
X312000Y287500D02*X315000D01*
X315500Y287000D01*
Y286000D01*
X315000Y285500D01*
X312500D02*X315000D01*
X311500Y286500D02*X312500Y285500D01*
X311500Y287000D02*Y286500D01*
X312000Y287500D02*X311500Y287000D01*
X313000Y286500D02*X311500Y285500D01*
X314700Y284300D02*X315500Y283500D01*
X311500D02*X315500D01*
X311500Y284300D02*Y282800D01*
X330237Y319190D02*X331537D01*
X329537Y319890D02*X330237Y319190D01*
X329537Y322490D02*Y319890D01*
Y322490D02*X330237Y323190D01*
X331537D01*
X332737Y322690D02*Y319690D01*
Y322690D02*X333237Y323190D01*
X334237D01*
X334737Y322690D01*
Y319690D01*
X334237Y319190D02*X334737Y319690D01*
X333237Y319190D02*X334237D01*
X332737Y319690D02*X333237Y319190D01*
X335937Y323190D02*Y319190D01*
Y323190D02*X338437Y319190D01*
Y323190D02*Y319190D01*
X339637Y323190D02*Y319190D01*
Y323190D02*X342137Y319190D01*
Y323190D02*Y319190D01*
X343337Y322690D02*X343837Y323190D01*
X345337D01*
X345837Y322690D01*
Y321690D01*
X343337Y319190D02*X345837Y321690D01*
X343337Y319190D02*X345837D01*
X236500Y237500D02*X238500D01*
X239000Y237000D01*
Y236000D01*
X238500Y235500D02*X239000Y236000D01*
X237000Y235500D02*X238500D01*
X237000Y237500D02*Y233500D01*
X237800Y235500D02*X239000Y233500D01*
X240200Y237000D02*X240700Y237500D01*
X241700D01*
X242200Y237000D01*
X241700Y233500D02*X242200Y234000D01*
X240700Y233500D02*X241700D01*
X240200Y234000D02*X240700Y233500D01*
Y235700D02*X241700D01*
X242200Y237000D02*Y236200D01*
Y235200D02*Y234000D01*
Y235200D02*X241700Y235700D01*
X242200Y236200D02*X241700Y235700D01*
X322200Y221500D02*X323500D01*
X321500Y222200D02*X322200Y221500D01*
X321500Y224800D02*Y222200D01*
Y224800D02*X322200Y225500D01*
X323500D01*
X324700Y225000D02*Y222000D01*
Y225000D02*X325200Y225500D01*
X326200D01*
X326700Y225000D01*
Y222000D01*
X326200Y221500D02*X326700Y222000D01*
X325200Y221500D02*X326200D01*
X324700Y222000D02*X325200Y221500D01*
X327900Y225500D02*Y221500D01*
Y225500D02*X330400Y221500D01*
Y225500D02*Y221500D01*
X331600Y225500D02*Y221500D01*
Y225500D02*X334100Y221500D01*
Y225500D02*Y221500D01*
X335300Y225500D02*X337300D01*
X335300D02*Y223500D01*
X335800Y224000D01*
X336800D01*
X337300Y223500D01*
Y222000D01*
X336800Y221500D02*X337300Y222000D01*
X335800Y221500D02*X336800D01*
X335300Y222000D02*X335800Y221500D01*
X278200D02*X279500D01*
X277500Y222200D02*X278200Y221500D01*
X277500Y224800D02*Y222200D01*
Y224800D02*X278200Y225500D01*
X279500D01*
X280700Y225000D02*Y222000D01*
Y225000D02*X281200Y225500D01*
X282200D01*
X282700Y225000D01*
Y222000D01*
X282200Y221500D02*X282700Y222000D01*
X281200Y221500D02*X282200D01*
X280700Y222000D02*X281200Y221500D01*
X283900Y225500D02*Y221500D01*
Y225500D02*X286400Y221500D01*
Y225500D02*Y221500D01*
X287600Y225500D02*Y221500D01*
Y225500D02*X290100Y221500D01*
Y225500D02*Y221500D01*
X291300Y223000D02*X293300Y225500D01*
X291300Y223000D02*X293800D01*
X293300Y225500D02*Y221500D01*
X224200Y213500D02*X225500D01*
X223500Y214200D02*X224200Y213500D01*
X223500Y216800D02*Y214200D01*
Y216800D02*X224200Y217500D01*
X225500D01*
X226700Y217000D02*Y214000D01*
Y217000D02*X227200Y217500D01*
X228200D01*
X228700Y217000D01*
Y214000D01*
X228200Y213500D02*X228700Y214000D01*
X227200Y213500D02*X228200D01*
X226700Y214000D02*X227200Y213500D01*
X229900Y217500D02*Y213500D01*
Y217500D02*X232400Y213500D01*
Y217500D02*Y213500D01*
X233600Y217500D02*Y213500D01*
Y217500D02*X236100Y213500D01*
Y217500D02*Y213500D01*
X237300Y217000D02*X237800Y217500D01*
X238800D01*
X239300Y217000D01*
X238800Y213500D02*X239300Y214000D01*
X237800Y213500D02*X238800D01*
X237300Y214000D02*X237800Y213500D01*
Y215700D02*X238800D01*
X239300Y217000D02*Y216200D01*
Y215200D02*Y214000D01*
Y215200D02*X238800Y215700D01*
X239300Y216200D02*X238800Y215700D01*
M02*
