G04 start of page 5 for group -4079 idx -4079 *
G04 Title: (unknown), topsilk *
G04 Creator: pcb 20091103 *
G04 CreationDate: Fri Aug 27 15:58:52 2010 UTC *
G04 For: fosse *
G04 Format: Gerber/RS-274X *
G04 PCB-Dimensions: 330000 250000 *
G04 PCB-Coordinate-Origin: lower left *
%MOIN*%
%FSLAX25Y25*%
%LNFRONTSILK*%
%ADD14C,0.0200*%
%ADD23C,0.0110*%
%ADD24C,0.0060*%
%ADD25C,0.0100*%
%ADD26C,0.0400*%
G54D14*G36*
X156000Y30000D02*Y130000D01*
X256000D01*
Y30000D01*
X156000D01*
G37*
G54D23*X12500Y180500D02*Y5500D01*
G54D24*X40500Y207500D02*X53000D01*
X27000D01*
X129400Y210600D02*X122200D01*
X125500Y216000D02*Y206000D01*
X284800Y218800D02*X293900D01*
X283500D01*
X288900D02*X284800D01*
X40500Y215000D02*Y199500D01*
G54D23*X320000Y6500D02*Y180500D01*
G54D25*X12500Y185000D02*X320000D01*
G54D24*X289000Y224500D02*Y213000D01*
G54D25*X283500Y205500D02*X284500D01*
X284000Y209500D02*Y205500D01*
X283000Y208500D02*X284000Y209500D01*
X285701Y206000D02*X288701Y209000D01*
X289902D02*X290402Y209500D01*
X291902D01*
X292402Y209000D01*
Y208000D01*
X289902Y205500D02*X292402Y208000D01*
X289902Y205500D02*X292402D01*
X293603Y209500D02*Y208500D01*
X294603Y209500D02*Y208500D01*
X118000Y198000D02*X120000Y200000D01*
Y201500D02*Y200000D01*
X119500Y202000D02*X120000Y201500D01*
X118500Y202000D02*X119500D01*
X118000Y201500D02*X118500Y202000D01*
X118000Y201500D02*Y200500D01*
X118500Y200000D01*
X120000D01*
X121201Y198500D02*X124201Y201500D01*
X125902Y198000D02*X126902D01*
X126402Y202000D02*Y198000D01*
X125402Y201000D02*X126402Y202000D01*
X129603D02*X130103Y201500D01*
X128603Y202000D02*X129603D01*
X128103Y201500D02*X128603Y202000D01*
X128103Y201500D02*Y198500D01*
X128603Y198000D01*
X129603Y200000D02*X130103Y199500D01*
X128103Y200000D02*X129603D01*
X128603Y198000D02*X129603D01*
X130103Y198500D01*
Y199500D02*Y198500D01*
X131304Y202000D02*Y201000D01*
X132304Y202000D02*Y201000D01*
X35500Y192500D02*X36500D01*
X36000Y196500D02*Y192500D01*
X35000Y195500D02*X36000Y196500D01*
X37701Y193000D02*X40701Y196000D01*
X41902Y194500D02*X43902Y196500D01*
X41902Y194500D02*X44402D01*
X43902Y196500D02*Y192500D01*
X45603Y196500D02*Y195500D01*
X46603Y196500D02*Y195500D01*
X167000Y191170D02*X169660D01*
X168330D02*Y185850D01*
X171257Y187845D02*Y186515D01*
Y187845D02*X171922Y188510D01*
X173252D01*
X173917Y187845D01*
Y186515D01*
X173252Y185850D02*X173917Y186515D01*
X171922Y185850D02*X173252D01*
X171257Y186515D02*X171922Y185850D01*
X176179Y187845D02*Y183855D01*
X175514Y188510D02*X176179Y187845D01*
X176844Y188510D01*
X178174D01*
X178839Y187845D01*
Y186515D01*
X178174Y185850D02*X178839Y186515D01*
X176844Y185850D02*X178174D01*
X176179Y186515D02*X176844Y185850D01*
X182830Y188510D02*X184825D01*
X182830Y185850D02*X185490D01*
X182830Y191170D02*Y185850D01*
Y191170D02*X185490D01*
X189748D02*Y185850D01*
X189083D02*X189748Y186515D01*
X187753Y185850D02*X189083D01*
X187088Y186515D02*X187753Y185850D01*
X187088Y187845D02*Y186515D01*
Y187845D02*X187753Y188510D01*
X189083D01*
X189748Y187845D01*
X193340Y188510D02*X194005Y187845D01*
X192010Y188510D02*X193340D01*
X191345Y187845D02*X192010Y188510D01*
X191345Y187845D02*Y186515D01*
X192010Y185850D01*
X193340D01*
X194005Y186515D01*
X191345Y184520D02*X192010Y183855D01*
X193340D01*
X194005Y184520D01*
Y188510D02*Y184520D01*
X196267Y185850D02*X198262D01*
X195602Y186515D02*X196267Y185850D01*
X195602Y187845D02*Y186515D01*
Y187845D02*X196267Y188510D01*
X197597D01*
X198262Y187845D01*
X195602Y187180D02*X198262D01*
Y187845D02*Y187180D01*
X202254Y187845D02*Y186515D01*
Y187845D02*X202919Y188510D01*
X204249D01*
X204914Y187845D01*
Y186515D01*
X204249Y185850D02*X204914Y186515D01*
X202919Y185850D02*X204249D01*
X202254Y186515D02*X202919Y185850D01*
X207176Y190505D02*Y185850D01*
Y190505D02*X207841Y191170D01*
X208506D01*
X206511Y188510D02*X207841D01*
X212231Y185850D02*X214891D01*
X215556Y186515D01*
Y187845D02*Y186515D01*
X214891Y188510D02*X215556Y187845D01*
X212896Y188510D02*X214891D01*
X212896Y191170D02*Y185850D01*
X212231Y191170D02*X214891D01*
X215556Y190505D01*
Y189175D01*
X214891Y188510D02*X215556Y189175D01*
X217154Y187845D02*Y186515D01*
Y187845D02*X217819Y188510D01*
X219149D01*
X219814Y187845D01*
Y186515D01*
X219149Y185850D02*X219814Y186515D01*
X217819Y185850D02*X219149D01*
X217154Y186515D02*X217819Y185850D01*
X223406Y188510D02*X224071Y187845D01*
X222076Y188510D02*X223406D01*
X221411Y187845D02*X222076Y188510D01*
X221411Y187845D02*Y186515D01*
X222076Y185850D01*
X224071Y188510D02*Y186515D01*
X224736Y185850D01*
X222076D02*X223406D01*
X224071Y186515D01*
X226998Y187845D02*Y185850D01*
Y187845D02*X227663Y188510D01*
X228993D01*
X226333D02*X226998Y187845D01*
X233251Y191170D02*Y185850D01*
X232586D02*X233251Y186515D01*
X231256Y185850D02*X232586D01*
X230591Y186515D02*X231256Y185850D01*
X230591Y187845D02*Y186515D01*
Y187845D02*X231256Y188510D01*
X232586D01*
X233251Y187845D01*
X152075Y129406D02*Y148737D01*
Y180390D02*Y169052D01*
X98925Y180390D02*Y169052D01*
X152075Y129406D02*X98925D01*
Y180390D02*X152075D01*
X98925Y129406D02*Y148737D01*
Y173500D02*X152074D01*
X260000Y162500D02*Y180820D01*
X318000Y123650D02*Y144500D01*
X260000Y123650D02*X318000D01*
X260000Y180850D02*X318000D01*
Y162500D02*Y180850D01*
X260000Y123650D02*Y144500D01*
X279500Y163500D02*X282500D01*
X281500Y168500D02*X282500Y167500D01*
Y166500D01*
X279500Y163500D01*
X287500Y168500D02*X284500D01*
Y166500D01*
X286500D01*
X287500Y165500D01*
Y164500D01*
X286500Y163500D01*
X285500D01*
X284500Y164500D01*
X279500Y167500D02*X280500Y168500D01*
X281500D01*
X299000D02*Y163500D01*
X297000Y165500D02*Y163500D01*
Y167500D02*Y168500D01*
X295500Y163500D02*Y166000D01*
X294000Y164500D01*
X292500Y166000D01*
Y163500D01*
X262500Y179000D02*Y173000D01*
Y179000D02*X264500D01*
X265500Y178000D01*
Y177000D01*
X264500Y176000D01*
X262500D01*
X267500D02*X266500Y175000D01*
Y174000D01*
X267500Y173000D01*
X268500D01*
X269500Y174000D01*
Y175000D01*
X268500Y176000D01*
X267500D01*
X269500Y174000D02*X270500Y173000D01*
X275500Y175000D02*X274500Y176000D01*
X273500D01*
X272500Y175000D01*
Y173000D02*Y176000D01*
X278500Y179000D02*Y173000D01*
X279500Y177000D02*X277500D01*
X283500Y173000D02*X282500Y174000D01*
Y175000D01*
X283500Y176000D01*
X284500D01*
X285500Y175000D01*
Y174000D01*
X284500Y173000D01*
X283500D01*
X287500Y176000D02*Y174000D01*
X288500Y173000D01*
X289500Y174000D01*
Y176000D01*
X291500Y173000D02*X293500D01*
Y176000D02*X291500D01*
Y173000D01*
X297500Y176000D02*X296500D01*
X295500Y175000D01*
Y173000D02*Y176000D01*
X298500Y175000D02*X297500Y176000D01*
X301500Y173000D02*X303500D01*
Y176000D02*X301500D01*
Y173000D01*
X307500Y176000D02*X306500D01*
X305500Y175000D01*
Y174000D01*
X306500Y173000D01*
X307500D01*
Y179000D01*
X311500Y176000D02*X310500D01*
X309500Y175000D01*
Y174000D01*
X310500Y173000D01*
X311500D01*
Y176000D02*Y171000D01*
X310500Y170000D01*
X309500Y171000D01*
X313500Y173000D02*X315500D01*
Y176000D02*X313500D01*
Y173000D01*
X315000Y174500D02*X313500D01*
X303000D02*X301500D01*
X293000D02*X291500D01*
X302500Y179500D02*X301500Y178500D01*
X302500Y179500D02*X303500Y178500D01*
X302500Y177500D02*Y179500D01*
X41500Y142000D02*X40500Y143000D01*
X40000Y132500D02*X40500D01*
X41500Y133500D01*
X39000D02*X40000Y132500D01*
Y136500D02*X39000Y135500D01*
X40500Y136500D02*X40000D01*
X41500Y135500D02*X40500Y136500D01*
Y143000D02*X40000D01*
Y139000D02*X40500D01*
X41500Y140000D01*
X39000D02*X40000Y139000D01*
Y143000D02*X39000Y142000D01*
Y140000D01*
Y135500D02*Y133500D01*
X46500Y149000D02*Y145000D01*
X45500Y149000D02*X47500D01*
X43500Y146000D02*Y148000D01*
X42500Y145000D02*X43500Y146000D01*
X41500Y145000D02*X42500D01*
X41500Y149000D02*Y145000D01*
X19000Y143000D02*X20500D01*
X19000D02*Y139000D01*
X23500Y136500D02*X24500D01*
X25000Y136000D01*
X23000D02*X23500Y136500D01*
X25000Y134500D02*X23000Y132500D01*
X56000Y136500D02*Y132500D01*
X61000Y143000D02*X60000Y142000D01*
X61000Y139000D02*Y143000D01*
X60000Y139000D02*X62000D01*
X56000D02*X58000D01*
X56000Y143000D02*Y139000D01*
X60000Y132500D02*X62000D01*
Y134500D02*X60000Y132500D01*
X62000Y136000D02*Y134500D01*
X61500Y136500D02*X62000Y136000D01*
X60000D02*X60500Y136500D01*
X61500D01*
X23000Y132500D02*X25000D01*
X56000D02*X58000D01*
X24000Y143000D02*X23000Y142000D01*
X24000Y139000D02*Y143000D01*
X23000Y139000D02*X25000D01*
X19000Y136500D02*Y132500D01*
X25000Y136000D02*Y134500D01*
X17500Y168000D02*X19500D01*
X17500Y172000D02*Y168000D01*
X63000Y169500D02*X63500Y168000D01*
X63000Y170000D02*X62000D01*
X63500Y170500D02*X63000Y170000D01*
X63500Y171500D02*Y170500D01*
X63000Y172000D02*X63500Y171500D01*
X61500Y172000D02*X63000D01*
X61500D02*Y168000D01*
X20500Y134000D02*X21000Y132500D01*
X20500Y140500D02*X21000Y139000D01*
X20500Y134500D02*X19500D01*
X21000Y135000D02*X20500Y134500D01*
X21000Y136000D02*Y135000D01*
X20500Y136500D02*X21000Y136000D01*
X19000Y136500D02*X20500D01*
Y141000D02*X19500D01*
X21000Y141500D02*X20500Y141000D01*
X21000Y142500D02*Y141500D01*
X20500Y143000D02*X21000Y142500D01*
X42500Y149000D02*X41500D01*
X43500Y148000D02*X42500Y149000D01*
X39000Y147000D02*X38000D01*
X39500Y147500D02*X39000Y147000D01*
X39500Y148500D02*Y147500D01*
X39000Y149000D02*X39500Y148500D01*
X37500Y149000D02*X39000D01*
X37500Y145000D02*Y149000D01*
X34500D02*X33500D01*
X35500Y148000D02*X34500Y149000D01*
X35500Y146000D02*Y148000D01*
X34500Y145000D02*X35500Y146000D01*
X33500Y145000D02*X34500D01*
X33500Y149000D02*Y145000D01*
X39000Y167500D02*X40500Y169000D01*
X42000Y167500D01*
X43000D02*X40500Y170000D01*
X38000Y167500D02*X43000D01*
X40500Y170000D02*X38000Y167500D01*
X40500Y170000D02*Y162500D01*
X15500Y130000D02*X65500D01*
X15500Y174000D02*Y124000D01*
G54D26*X40500Y117000D02*Y116000D01*
X22000Y117000D02*Y116000D01*
G54D25*X47000Y178500D02*Y180500D01*
X45000Y175000D02*X36000D01*
X59000D02*X56000D01*
X59000Y180500D02*Y175000D01*
X22000Y180500D02*X59000D01*
X22000Y175000D02*Y180500D01*
X25000Y175000D02*X22000D01*
X65500Y174000D02*X56000D01*
X36000D02*X45000D01*
X15500D02*X25000D01*
X30500Y179500D02*Y180500D01*
X34000Y178500D02*Y180500D01*
X46000Y124000D02*X53500D01*
X27500D02*X35000D01*
X65500D02*X64500D01*
X16500D02*X15500D01*
X50500Y179500D02*Y180500D01*
X65500Y124000D02*Y174000D01*
G54D26*X59000Y117000D02*Y116000D01*
G54D25*X99134Y122752D02*X100634D01*
X98634Y123252D02*X99134Y122752D01*
X98634Y126252D02*Y123252D01*
Y126252D02*X99134Y126752D01*
X100634D01*
X101835Y126252D02*Y123252D01*
Y126252D02*X102335Y126752D01*
X103335D01*
X103835Y126252D01*
Y123252D01*
X103335Y122752D02*X103835Y123252D01*
X102335Y122752D02*X103335D01*
X101835Y123252D02*X102335Y122752D01*
X105036Y126752D02*Y122752D01*
Y126752D02*Y126252D01*
X107536Y123752D01*
Y126752D02*Y122752D01*
X108737Y126752D02*Y122752D01*
Y126752D02*Y126252D01*
X111237Y123752D01*
Y126752D02*Y122752D01*
X112438Y126252D02*X112938Y126752D01*
X114438D01*
X114938Y126252D01*
Y125252D01*
X112438Y122752D02*X114938Y125252D01*
X112438Y122752D02*X114938D01*
X261140Y116760D02*X262640D01*
X260640Y117260D02*X261140Y116760D01*
X260640Y120260D02*Y117260D01*
Y120260D02*X261140Y120760D01*
X262640D01*
X263841Y120260D02*Y117260D01*
Y120260D02*X264341Y120760D01*
X265341D01*
X265841Y120260D01*
Y117260D01*
X265341Y116760D02*X265841Y117260D01*
X264341Y116760D02*X265341D01*
X263841Y117260D02*X264341Y116760D01*
X267042Y120760D02*Y116760D01*
Y120760D02*Y120260D01*
X269542Y117760D01*
Y120760D02*Y116760D01*
X270743Y120760D02*Y116760D01*
Y120760D02*Y120260D01*
X273243Y117760D01*
Y120760D02*Y116760D01*
X274444Y120260D02*X274944Y120760D01*
X275944D01*
X276444Y120260D01*
Y117260D01*
X275944Y116760D02*X276444Y117260D01*
X274944Y116760D02*X275944D01*
X274444Y117260D02*X274944Y116760D01*
Y118760D02*X276444D01*
X66000Y118500D02*X66500Y118000D01*
X64500Y118500D02*X66000D01*
X64000Y118000D02*X64500Y118500D01*
X64000Y118000D02*Y117000D01*
X64500Y116500D01*
X66000D01*
X66500Y116000D01*
Y115000D01*
X66000Y114500D02*X66500Y115000D01*
X64500Y114500D02*X66000D01*
X64000Y115000D02*X64500Y114500D01*
X68201D02*X69201D01*
X68701Y118500D02*Y114500D01*
X67701Y117500D02*X68701Y118500D01*
M02*
