G04 start of page 2 for group 3 layer_idx 0 *
G04 Title: (unknown), top_copper *
G04 Creator: pcb-rnd 2.0.0 *
G04 CreationDate: 2018-06-05 21:29:22 UTC *
G04 For:  *
G04 Format: Gerber/RS-274X *
G04 PCB-Dimensions: 500000 500000 *
G04 PCB-Coordinate-Origin: lower left *
%MOIN*%
%FSLAX25Y25*%
%LNTOP*%
%ADD21C,0.0400*%
%ADD20C,0.0320*%
%ADD19C,0.0790*%
%ADD18C,0.0420*%
%ADD17C,0.0394*%
%ADD16C,0.2000*%
%ADD15C,0.0600*%
%ADD14C,0.0720*%
%ADD13C,0.0800*%
%ADD12C,0.0500*%
%ADD11C,0.0001*%
G54D11*G36*
X199502Y243344D02*X199890Y242890D01*
X200668Y242225D01*
X201540Y241691D01*
X202485Y241299D01*
X203480Y241060D01*
X204500Y240980D01*
X205520Y241060D01*
X206515Y241299D01*
X207460Y241691D01*
X208332Y242225D01*
X209110Y242890D01*
X209205Y243000D01*
X214000D01*
Y234951D01*
X213725Y234885D01*
X213362Y234734D01*
X213026Y234529D01*
X212727Y234273D01*
X212471Y233974D01*
X212266Y233638D01*
X212115Y233275D01*
X212023Y232892D01*
X211992Y232500D01*
X212000Y232402D01*
Y231500D01*
X199502D01*
Y243344D01*
G37*
G36*
Y262986D02*X199587Y262992D01*
X199629Y262983D01*
X199671Y262970D01*
X199711Y262953D01*
X199750Y262933D01*
X199787Y262910D01*
X199821Y262883D01*
X199854Y262854D01*
X199883Y262821D01*
X199910Y262787D01*
X199933Y262750D01*
X199953Y262711D01*
X199970Y262671D01*
X199983Y262629D01*
X199992Y262587D01*
X199998Y262544D01*
X200000Y262500D01*
Y252205D01*
X199890Y252110D01*
X199502Y251656D01*
Y262986D01*
G37*
G36*
X238622Y254737D02*X239225Y254547D01*
X240632Y254235D01*
X242061Y254047D01*
X243500Y253984D01*
X243721Y254000D01*
X256355D01*
X256500Y253991D01*
X257284Y253966D01*
X258063Y253863D01*
X258829Y253693D01*
X259578Y253457D01*
X260304Y253157D01*
X261000Y252794D01*
X261662Y252372D01*
X262285Y251894D01*
X262864Y251364D01*
X263394Y250785D01*
X263872Y250162D01*
X264294Y249500D01*
X264657Y248804D01*
X264677Y248754D01*
X264191Y247960D01*
X263799Y247015D01*
X263560Y246020D01*
X263480Y245000D01*
X263560Y243980D01*
X263799Y242985D01*
X264191Y242040D01*
X264725Y241168D01*
X265390Y240390D01*
X266168Y239725D01*
X267040Y239191D01*
X267985Y238799D01*
X268980Y238560D01*
X270000Y238480D01*
Y231500D01*
X264285D01*
X263775Y232332D01*
X263110Y233110D01*
X262332Y233775D01*
X261460Y234309D01*
X260515Y234701D01*
X259520Y234940D01*
X258500Y235020D01*
X257480Y234940D01*
X256485Y234701D01*
X255540Y234309D01*
X254668Y233775D01*
X253890Y233110D01*
X253225Y232332D01*
X252715Y231500D01*
X238622D01*
Y244658D01*
X238703Y244665D01*
X238894Y244712D01*
X239076Y244788D01*
X239243Y244892D01*
X239392Y245020D01*
X239519Y245170D01*
X239621Y245339D01*
X239692Y245522D01*
X239848Y246075D01*
X239949Y246640D01*
X240000Y247213D01*
Y247787D01*
X239949Y248360D01*
X239848Y248925D01*
X239698Y249480D01*
X239625Y249663D01*
X239522Y249832D01*
X239395Y249983D01*
X239245Y250111D01*
X239078Y250215D01*
X238896Y250292D01*
X238704Y250339D01*
X238622Y250346D01*
Y254737D01*
G37*
G36*
X233502Y257374D02*X234027Y256971D01*
X235242Y256197D01*
X236520Y255532D01*
X237851Y254980D01*
X238622Y254737D01*
Y250346D01*
X238507Y250355D01*
X238310Y250341D01*
X238118Y250296D01*
X237936Y250221D01*
X237767Y250119D01*
X237616Y249991D01*
X237487Y249842D01*
X237383Y249674D01*
X237307Y249492D01*
X237260Y249301D01*
X237243Y249104D01*
X237258Y248907D01*
X237307Y248716D01*
X237403Y248376D01*
X237465Y248029D01*
X237496Y247677D01*
Y247323D01*
X237465Y246971D01*
X237403Y246624D01*
X237310Y246283D01*
X237262Y246092D01*
X237247Y245896D01*
X237264Y245700D01*
X237310Y245509D01*
X237387Y245328D01*
X237490Y245160D01*
X237619Y245011D01*
X237769Y244884D01*
X237937Y244782D01*
X238119Y244708D01*
X238311Y244663D01*
X238507Y244649D01*
X238622Y244658D01*
Y231500D01*
X233502D01*
Y241000D01*
X233787D01*
X234360Y241051D01*
X234925Y241152D01*
X235480Y241302D01*
X235663Y241375D01*
X235832Y241478D01*
X235983Y241605D01*
X236111Y241755D01*
X236215Y241922D01*
X236292Y242104D01*
X236339Y242296D01*
X236355Y242493D01*
X236341Y242690D01*
X236296Y242882D01*
X236221Y243064D01*
X236119Y243233D01*
X235991Y243384D01*
X235842Y243513D01*
X235674Y243617D01*
X235492Y243693D01*
X235301Y243740D01*
X235104Y243757D01*
X234907Y243742D01*
X234716Y243693D01*
X234376Y243597D01*
X234029Y243535D01*
X233677Y243504D01*
X233502D01*
Y251496D01*
X233677D01*
X234029Y251465D01*
X234376Y251403D01*
X234717Y251310D01*
X234908Y251262D01*
X235104Y251247D01*
X235300Y251264D01*
X235491Y251310D01*
X235672Y251387D01*
X235840Y251490D01*
X235989Y251619D01*
X236116Y251769D01*
X236218Y251937D01*
X236292Y252119D01*
X236337Y252311D01*
X236351Y252507D01*
X236335Y252703D01*
X236288Y252894D01*
X236212Y253076D01*
X236108Y253243D01*
X235980Y253392D01*
X235830Y253519D01*
X235661Y253621D01*
X235478Y253692D01*
X234925Y253848D01*
X234360Y253949D01*
X233787Y254000D01*
X233502D01*
Y257374D01*
G37*
G36*
X199502Y300500D02*X225500D01*
X231500Y294500D01*
Y284000D01*
X227598D01*
X227500Y284008D01*
X227108Y283977D01*
X227108Y283977D01*
X226725Y283885D01*
X226362Y283734D01*
X226026Y283529D01*
X225727Y283273D01*
X225471Y282974D01*
X225266Y282638D01*
X225115Y282275D01*
X225049Y282000D01*
X214304D01*
X214164Y282164D01*
X213984Y282317D01*
X213783Y282441D01*
X213565Y282531D01*
X213335Y282586D01*
X213100Y282605D01*
X213041Y282600D01*
X205959D01*
X205900Y282605D01*
X205665Y282586D01*
X205665Y282586D01*
X205435Y282531D01*
X205217Y282441D01*
X205016Y282317D01*
X204836Y282164D01*
X204683Y281984D01*
X204559Y281783D01*
X204469Y281565D01*
X204414Y281335D01*
X204395Y281100D01*
X204400Y281041D01*
Y278921D01*
X204291Y279262D01*
X204117Y279677D01*
X204059Y279780D01*
X203985Y279873D01*
X203897Y279953D01*
X203798Y280018D01*
X203690Y280066D01*
X203576Y280098D01*
X203458Y280111D01*
X203339Y280105D01*
X203223Y280081D01*
X203112Y280039D01*
X203009Y279980D01*
X202917Y279906D01*
X202837Y279818D01*
X202772Y279719D01*
X202723Y279611D01*
X202692Y279496D01*
X202679Y279378D01*
X202685Y279260D01*
X202709Y279144D01*
X202753Y279034D01*
X202879Y278743D01*
X202975Y278441D01*
X203044Y278131D01*
X203086Y277817D01*
X203100Y277500D01*
X203086Y277183D01*
X203044Y276869D01*
X202975Y276559D01*
X202879Y276257D01*
X202756Y275965D01*
X202712Y275855D01*
X202688Y275740D01*
X202683Y275622D01*
X202696Y275504D01*
X202727Y275391D01*
X202775Y275283D01*
X202840Y275184D01*
X202919Y275097D01*
X203011Y275023D01*
X203114Y274964D01*
X203224Y274923D01*
X203340Y274899D01*
X203458Y274893D01*
X203575Y274906D01*
X203689Y274937D01*
X203797Y274985D01*
X203895Y275050D01*
X203983Y275130D01*
X204057Y275222D01*
X204113Y275325D01*
X204291Y275738D01*
X204400Y276079D01*
Y273959D01*
X204395Y273900D01*
X204414Y273665D01*
X204414Y273665D01*
X204469Y273435D01*
X204559Y273217D01*
X204683Y273016D01*
X204836Y272836D01*
X205016Y272683D01*
X205217Y272559D01*
X205435Y272469D01*
X205665Y272414D01*
X205900Y272395D01*
X205959Y272400D01*
X213041D01*
X213100Y272395D01*
X213335Y272414D01*
X213335Y272414D01*
X213565Y272469D01*
X213783Y272559D01*
X213984Y272683D01*
X214164Y272836D01*
X214304Y273000D01*
X225049D01*
X225115Y272725D01*
X225266Y272362D01*
X225471Y272026D01*
X225727Y271727D01*
X226026Y271471D01*
X226362Y271266D01*
X226725Y271115D01*
X227000Y271049D01*
Y270500D01*
X227000Y270499D01*
X227047Y269061D01*
X227235Y267632D01*
X227547Y266225D01*
X227980Y264851D01*
X228532Y263520D01*
X229197Y262242D01*
X229971Y261027D01*
X230848Y259884D01*
X231822Y258822D01*
X232884Y257848D01*
X233502Y257374D01*
Y254000D01*
X233213D01*
X232640Y253949D01*
X232075Y253848D01*
X231520Y253698D01*
X231337Y253625D01*
X231168Y253522D01*
X231017Y253395D01*
X230889Y253245D01*
X230785Y253078D01*
X230708Y252896D01*
X230661Y252704D01*
X230645Y252507D01*
X230659Y252310D01*
X230704Y252118D01*
X230779Y251936D01*
X230881Y251767D01*
X231009Y251616D01*
X231158Y251487D01*
X231326Y251383D01*
X231508Y251307D01*
X231699Y251260D01*
X231896Y251243D01*
X232093Y251258D01*
X232284Y251307D01*
X232624Y251403D01*
X232971Y251465D01*
X233323Y251496D01*
X233502D01*
Y243504D01*
X233323D01*
X232971Y243535D01*
X232624Y243597D01*
X232283Y243690D01*
X232092Y243738D01*
X231896Y243753D01*
X231700Y243736D01*
X231509Y243690D01*
X231328Y243613D01*
X231160Y243510D01*
X231011Y243381D01*
X230884Y243231D01*
X230782Y243063D01*
X230708Y242881D01*
X230663Y242689D01*
X230649Y242493D01*
X230665Y242297D01*
X230712Y242106D01*
X230788Y241924D01*
X230892Y241757D01*
X231020Y241608D01*
X231170Y241481D01*
X231339Y241379D01*
X231522Y241308D01*
X232075Y241152D01*
X232640Y241051D01*
X233213Y241000D01*
X233502D01*
Y231500D01*
X225000D01*
Y232402D01*
X225008Y232500D01*
X224977Y232892D01*
X224977Y232892D01*
X224885Y233275D01*
X224734Y233638D01*
X224529Y233974D01*
X224273Y234273D01*
X223974Y234529D01*
X223638Y234734D01*
X223275Y234885D01*
X223000Y234951D01*
Y241000D01*
X227402D01*
X227500Y240992D01*
X227892Y241023D01*
X227892Y241023D01*
X228275Y241115D01*
X228638Y241266D01*
X228974Y241471D01*
X229273Y241727D01*
X229529Y242026D01*
X229734Y242362D01*
X229885Y242725D01*
X229977Y243108D01*
X230008Y243500D01*
X230000Y243598D01*
Y251402D01*
X230008Y251500D01*
X229977Y251892D01*
X229977Y251892D01*
X229885Y252275D01*
X229734Y252638D01*
X229529Y252974D01*
X229273Y253273D01*
X228974Y253529D01*
X228638Y253734D01*
X228275Y253885D01*
X227892Y253977D01*
X227500Y254008D01*
X227402Y254000D01*
X219598D01*
X219500Y254008D01*
X219108Y253977D01*
X219108Y253977D01*
X218725Y253885D01*
X218362Y253734D01*
X218026Y253529D01*
X217727Y253273D01*
X217471Y252974D01*
X217266Y252638D01*
X217115Y252275D01*
X217049Y252000D01*
X209205D01*
X209110Y252110D01*
X209000Y252205D01*
Y262500D01*
X209000Y262500D01*
X208973Y263329D01*
X208865Y264151D01*
X208685Y264961D01*
X208436Y265752D01*
X208118Y266519D01*
X207735Y267255D01*
X207289Y267954D01*
X206784Y268612D01*
X206224Y269224D01*
X205612Y269784D01*
X204954Y270289D01*
X204255Y270735D01*
X203519Y271118D01*
X202752Y271436D01*
X201961Y271685D01*
X201151Y271865D01*
X200329Y271973D01*
X199502Y272009D01*
Y272395D01*
X199949Y272415D01*
X200395Y272474D01*
X200834Y272572D01*
X201262Y272709D01*
X201677Y272883D01*
X201780Y272941D01*
X201873Y273015D01*
X201953Y273103D01*
X202018Y273202D01*
X202066Y273310D01*
X202098Y273424D01*
X202111Y273542D01*
X202105Y273661D01*
X202081Y273777D01*
X202039Y273888D01*
X201980Y273991D01*
X201906Y274083D01*
X201818Y274163D01*
X201719Y274228D01*
X201611Y274277D01*
X201496Y274308D01*
X201378Y274321D01*
X201260Y274315D01*
X201144Y274291D01*
X201034Y274247D01*
X200743Y274121D01*
X200441Y274025D01*
X200131Y273956D01*
X199817Y273914D01*
X199502Y273900D01*
Y281100D01*
X199817Y281086D01*
X200131Y281044D01*
X200441Y280975D01*
X200743Y280879D01*
X201035Y280756D01*
X201145Y280712D01*
X201260Y280688D01*
X201378Y280683D01*
X201496Y280696D01*
X201609Y280727D01*
X201717Y280775D01*
X201816Y280840D01*
X201903Y280919D01*
X201977Y281011D01*
X202036Y281114D01*
X202077Y281224D01*
X202101Y281340D01*
X202107Y281458D01*
X202094Y281575D01*
X202063Y281689D01*
X202015Y281797D01*
X201950Y281895D01*
X201870Y281983D01*
X201778Y282057D01*
X201675Y282113D01*
X201262Y282291D01*
X200834Y282428D01*
X200395Y282526D01*
X199949Y282585D01*
X199502Y282605D01*
Y300500D01*
G37*
G36*
X178500D02*X199502D01*
Y282605D01*
X199500Y282605D01*
X199051Y282585D01*
X198605Y282526D01*
X198166Y282428D01*
X197738Y282291D01*
X197323Y282117D01*
X197220Y282059D01*
X197127Y281985D01*
X197047Y281897D01*
X196982Y281798D01*
X196934Y281690D01*
X196902Y281576D01*
X196889Y281458D01*
X196895Y281339D01*
X196919Y281223D01*
X196961Y281112D01*
X197020Y281009D01*
X197094Y280917D01*
X197182Y280837D01*
X197281Y280772D01*
X197389Y280723D01*
X197504Y280692D01*
X197622Y280679D01*
X197740Y280685D01*
X197856Y280709D01*
X197966Y280753D01*
X198257Y280879D01*
X198559Y280975D01*
X198869Y281044D01*
X199183Y281086D01*
X199500Y281100D01*
X199502Y281100D01*
Y273900D01*
X199500Y273900D01*
X199183Y273914D01*
X198869Y273956D01*
X198559Y274025D01*
X198257Y274121D01*
X197965Y274244D01*
X197855Y274288D01*
X197740Y274312D01*
X197622Y274317D01*
X197505Y274304D01*
X197391Y274273D01*
X197283Y274225D01*
X197184Y274160D01*
X197097Y274081D01*
X197023Y273989D01*
X196964Y273886D01*
X196923Y273776D01*
X196899Y273660D01*
X196893Y273542D01*
X196906Y273425D01*
X196937Y273311D01*
X196985Y273203D01*
X197050Y273105D01*
X197130Y273017D01*
X197222Y272943D01*
X197325Y272887D01*
X197738Y272709D01*
X198166Y272572D01*
X198605Y272474D01*
X199051Y272415D01*
X199500Y272395D01*
X199502Y272395D01*
Y272009D01*
X199500Y272009D01*
X199463Y272006D01*
X199021Y272021D01*
X198545Y272084D01*
X198076Y272187D01*
X197619Y272332D01*
X197176Y272515D01*
X196750Y272737D01*
X196345Y272995D01*
X195965Y273287D01*
X195611Y273611D01*
X195287Y273965D01*
X194995Y274345D01*
X194737Y274750D01*
X194515Y275176D01*
X194332Y275619D01*
X194292Y275743D01*
X194365Y275919D01*
X194501Y276485D01*
X194572Y276166D01*
X194709Y275738D01*
X194883Y275323D01*
X194941Y275220D01*
X195015Y275127D01*
X195103Y275047D01*
X195202Y274982D01*
X195310Y274934D01*
X195424Y274902D01*
X195542Y274889D01*
X195661Y274895D01*
X195777Y274919D01*
X195888Y274961D01*
X195991Y275020D01*
X196083Y275094D01*
X196163Y275182D01*
X196228Y275281D01*
X196277Y275389D01*
X196308Y275504D01*
X196321Y275622D01*
X196315Y275740D01*
X196291Y275856D01*
X196247Y275966D01*
X196121Y276257D01*
X196025Y276559D01*
X195956Y276869D01*
X195914Y277183D01*
X195900Y277500D01*
X195914Y277817D01*
X195956Y278131D01*
X196025Y278441D01*
X196121Y278743D01*
X196244Y279035D01*
X196288Y279145D01*
X196312Y279260D01*
X196317Y279378D01*
X196304Y279496D01*
X196273Y279609D01*
X196225Y279717D01*
X196160Y279816D01*
X196081Y279903D01*
X195989Y279977D01*
X195886Y280036D01*
X195776Y280077D01*
X195660Y280101D01*
X195542Y280107D01*
X195425Y280094D01*
X195311Y280063D01*
X195203Y280015D01*
X195105Y279950D01*
X195017Y279870D01*
X194943Y279778D01*
X194887Y279675D01*
X194709Y279262D01*
X194572Y278834D01*
X194501Y278515D01*
X194365Y279081D01*
X194058Y279822D01*
X193639Y280507D01*
X193117Y281117D01*
X192507Y281639D01*
X191822Y282058D01*
X191081Y282365D01*
X190300Y282553D01*
X189500Y282616D01*
X188700Y282553D01*
X187919Y282365D01*
X187178Y282058D01*
X186493Y281639D01*
X185883Y281117D01*
X185361Y280507D01*
X184942Y279822D01*
X184635Y279081D01*
X184447Y278300D01*
X184384Y277500D01*
X184447Y276700D01*
X184635Y275919D01*
X184942Y275178D01*
X185288Y274612D01*
X185481Y273744D01*
X185861Y272536D01*
X186346Y271366D01*
X186931Y270243D01*
X187611Y269175D01*
X188382Y268171D01*
X189237Y267237D01*
X190171Y266382D01*
X191175Y265611D01*
X192243Y264931D01*
X193366Y264346D01*
X194536Y263861D01*
X195744Y263481D01*
X196980Y263207D01*
X198235Y263041D01*
X199500Y262986D01*
X199502Y262986D01*
Y251656D01*
X199295Y251415D01*
X199181Y251367D01*
X199013Y251264D01*
X198863Y251137D01*
X198736Y250987D01*
X198633Y250819D01*
X198558Y250637D01*
X198512Y250446D01*
X198500Y250250D01*
Y251500D01*
X197250D01*
X197446Y251512D01*
X197637Y251558D01*
X197819Y251633D01*
X197987Y251736D01*
X198137Y251863D01*
X198264Y252013D01*
X198367Y252181D01*
X198442Y252363D01*
X198488Y252554D01*
X198504Y252750D01*
X198488Y252946D01*
X198442Y253137D01*
X198367Y253319D01*
X198264Y253487D01*
X198137Y253637D01*
X197987Y253764D01*
X197819Y253867D01*
X197637Y253942D01*
X197446Y253988D01*
X197250Y254000D01*
X191750D01*
X191554Y253988D01*
X191363Y253942D01*
X191181Y253867D01*
X191013Y253764D01*
X190863Y253637D01*
X190736Y253487D01*
X190633Y253319D01*
X190558Y253137D01*
X190512Y252946D01*
X190496Y252750D01*
X190512Y252554D01*
X190558Y252363D01*
X190633Y252181D01*
X190736Y252013D01*
X190863Y251863D01*
X191013Y251736D01*
X191181Y251633D01*
X191363Y251558D01*
X191554Y251512D01*
X191750Y251500D01*
X190500D01*
Y250250D01*
X190488Y250446D01*
X190442Y250637D01*
X190367Y250819D01*
X190264Y250987D01*
X190137Y251137D01*
X189987Y251264D01*
X189819Y251367D01*
X189637Y251442D01*
X189446Y251488D01*
X189250Y251504D01*
X189054Y251488D01*
X188863Y251442D01*
X188681Y251367D01*
X188513Y251264D01*
X188363Y251137D01*
X188236Y250987D01*
X188133Y250819D01*
X188058Y250637D01*
X188012Y250446D01*
X188000Y250250D01*
Y244750D01*
X188012Y244554D01*
X188058Y244363D01*
X188133Y244181D01*
X188236Y244013D01*
X188363Y243863D01*
X188513Y243736D01*
X188681Y243633D01*
X188863Y243558D01*
X189054Y243512D01*
X189250Y243496D01*
X189446Y243512D01*
X189637Y243558D01*
X189819Y243633D01*
X189987Y243736D01*
X190137Y243863D01*
X190264Y244013D01*
X190367Y244181D01*
X190442Y244363D01*
X190488Y244554D01*
X190500Y244750D01*
Y243500D01*
X191750D01*
X191554Y243488D01*
X191363Y243442D01*
X191181Y243367D01*
X191013Y243264D01*
X190863Y243137D01*
X190736Y242987D01*
X190633Y242819D01*
X190558Y242637D01*
X190512Y242446D01*
X190496Y242250D01*
X190512Y242054D01*
X190558Y241863D01*
X190633Y241681D01*
X190736Y241513D01*
X190863Y241363D01*
X191013Y241236D01*
X191181Y241133D01*
X191363Y241058D01*
X191554Y241012D01*
X191750Y241000D01*
X197250D01*
X197446Y241012D01*
X197637Y241058D01*
X197819Y241133D01*
X197987Y241236D01*
X198137Y241363D01*
X198264Y241513D01*
X198367Y241681D01*
X198442Y241863D01*
X198488Y242054D01*
X198504Y242250D01*
X198488Y242446D01*
X198442Y242637D01*
X198367Y242819D01*
X198264Y242987D01*
X198137Y243137D01*
X197987Y243264D01*
X197819Y243367D01*
X197637Y243442D01*
X197446Y243488D01*
X197250Y243500D01*
X198500D01*
Y244750D01*
X198512Y244554D01*
X198558Y244363D01*
X198633Y244181D01*
X198736Y244013D01*
X198863Y243863D01*
X199013Y243736D01*
X199181Y243633D01*
X199295Y243585D01*
X199502Y243344D01*
Y231500D01*
X180787D01*
X179619Y235206D01*
X178722Y239252D01*
X178500Y240935D01*
Y300500D01*
G37*
G54D12*X270000Y245000D02*X285000D01*
X287500Y247500D02*X312500D01*
X285000Y245000D02*X287500Y247500D01*
X330000Y295000D02*X335000Y300000D01*
X302500Y247500D02*Y250000D01*
X322500Y270000D01*
X357500Y335000D02*Y322500D01*
X336250Y301250D01*
X302500Y295000D02*X330000D01*
X257500Y285000D02*X347500D01*
X322500Y237500D02*X332074D01*
X332408Y237166D02*X349666D01*
X375000Y262500D01*
Y300000D01*
X347500Y285000D02*X362500Y270000D01*
X187500Y355000D02*X377500D01*
X209500Y277500D02*X231500D01*
X257500Y285000D02*X207500Y335000D01*
X187500Y355000D02*Y338500D01*
X173500Y324500D01*
Y246500D01*
X231500Y277500D02*Y270500D01*
X204500Y262500D02*Y247500D01*
X223500D01*
X218500Y228500D02*Y247500D01*
X217500Y207500D02*X232500D01*
X211500Y199500D02*Y201500D01*
X217500Y207500D01*
X240500Y188500D02*X213500D01*
X178404Y225455D02*X203364Y192443D01*
X243500Y258500D02*X256500D01*
X243500Y207500D02*X241500Y205500D01*
X251500Y199500D02*X300500D01*
X306500Y205500D01*
X296500Y216500D02*Y211500D01*
X292500Y207500D01*
X258500Y228500D02*Y216500D01*
X306500Y205500D02*Y216500D01*
X324500D02*Y237500D01*
X292500Y207500D02*X243500D01*
X241500Y205500D02*Y199500D01*
X232500Y207500D02*X241500Y216500D01*
X266500D01*
X231500Y270500D02*G75*G03X243500Y258500I12000J0D01*G01*
X189500Y277500D02*G75*G03X199500Y267500I10000J0D01*G01*
X204500Y262500D02*G75*G03X199500Y267500I-5000J0D01*G01*
X203270Y192530D02*G75*G03X213500Y188500I10230J10970D01*G01*
X270000Y245000D02*G75*G03X256500Y258500I-13500J0D01*G01*
X316500Y243500D02*G75*G03X312500Y247500I-4000J0D01*G01*
X316500Y243500D02*G75*G03X322500Y237500I6000J0D01*G01*
X251500Y199500D02*G75*G02X240500Y188500I-11000J0D01*G01*
X173500Y247500D02*G75*G03X178372Y225524I52000J0D01*G01*
G54D11*G36*
X266000Y289000D02*X274000D01*
Y281000D01*
X266000D01*
Y289000D01*
G37*
G54D13*X270000Y245000D03*
G54D11*G36*
X298500Y251500D02*X306500D01*
Y243500D01*
X298500D01*
Y251500D01*
G37*
G36*
X298900Y278600D02*X306100D01*
Y271400D01*
X298900D01*
Y278600D01*
G37*
G54D14*X302500Y285000D03*
Y295000D03*
G54D11*G36*
X331000Y304000D02*X339000D01*
Y296000D01*
X331000D01*
Y304000D01*
G37*
G54D13*X375000Y300000D03*
G54D11*G36*
X318500Y274000D02*X326500D01*
Y266000D01*
X318500D01*
Y274000D01*
G37*
G54D13*X362500Y270000D03*
G54D11*G36*
X328408Y251166D02*X336408D01*
Y243166D01*
X328408D01*
Y251166D01*
G37*
G54D13*X332408Y237166D03*
G54D15*X334500Y216500D03*
G54D11*G36*
X321500Y219500D02*X327500D01*
Y213500D01*
X321500D01*
Y219500D01*
G37*
G54D16*X337500Y355000D03*
X377500D03*
G54D13*X347500Y335000D03*
X357500D03*
X302500Y237500D03*
G54D15*X306500Y216500D03*
X296500D03*
X286500D03*
X276500D03*
G54D11*G36*
X263500Y219500D02*X269500D01*
Y213500D01*
X263500D01*
Y219500D01*
G37*
G54D16*X187500Y355000D03*
X227500D03*
G54D13*X197500Y335000D03*
X207500D03*
G54D11*G36*
X227500Y281500D02*X235500D01*
Y273500D01*
X227500D01*
Y281500D01*
G37*
G36*
X205900Y281100D02*X213100D01*
Y273900D01*
X205900D01*
Y281100D01*
G37*
G54D14*X199500Y277500D03*
X189500D03*
G54D13*X241500D03*
G54D11*G36*
X219500Y251500D02*X227500D01*
Y243500D01*
X219500D01*
Y251500D01*
G37*
G54D13*X233500Y247500D03*
G54D11*G36*
X190500Y251500D02*X198500D01*
Y243500D01*
X190500D01*
Y251500D01*
G37*
G54D13*X204500Y247500D03*
G54D11*G36*
X214500Y232500D02*X222500D01*
Y224500D01*
X214500D01*
Y232500D01*
G37*
G54D13*X231500Y199500D03*
X221500D03*
G54D11*G36*
X207500Y203500D02*X215500D01*
Y195500D01*
X207500D01*
Y203500D01*
G37*
G54D13*X241500Y199500D03*
X258500Y228500D03*
X251500Y199500D03*
G54D17*G54D18*G54D17*G54D18*G54D19*G54D20*G54D17*G54D18*G54D19*G54D20*G54D17*G54D18*G54D17*G54D21*G54D17*G54D21*M02*
